<?xml version="1.0" encoding="utf-8" standalone="no"?>
<!DOCTYPE svg PUBLIC "-//W3C//DTD SVG 1.1//EN"
  "http://www.w3.org/Graphics/SVG/1.1/DTD/svg11.dtd">
<!-- Created with matplotlib (https://matplotlib.org/) -->
<svg height="288pt" version="1.1" viewBox="0 0 432 288" width="432pt" xmlns="http://www.w3.org/2000/svg" xmlns:xlink="http://www.w3.org/1999/xlink">
 <defs>
  <style type="text/css">
*{stroke-linecap:butt;stroke-linejoin:round;}
  </style>
 </defs>
 <g id="figure_1">
  <g id="patch_1">
   <path d="M 0 288 
L 432 288 
L 432 0 
L 0 0 
z
" style="fill:#ffffff;"/>
  </g>
  <g id="axes_1">
   <g id="patch_2">
    <path d="M 54 252 
L 388.8 252 
L 388.8 34.56 
L 54 34.56 
z
" style="fill:#ffffff;"/>
   </g>
   <g id="PathCollection_1">
    <defs>
     <path d="M 0 3 
C 0.795609 3 1.55874 2.683901 2.12132 2.12132 
C 2.683901 1.55874 3 0.795609 3 0 
C 3 -0.795609 2.683901 -1.55874 2.12132 -2.12132 
C 1.55874 -2.683901 0.795609 -3 0 -3 
C -0.795609 -3 -1.55874 -2.683901 -2.12132 -2.12132 
C -2.683901 -1.55874 -3 -0.795609 -3 0 
C -3 0.795609 -2.683901 1.55874 -2.12132 2.12132 
C -1.55874 2.683901 -0.795609 3 0 3 
z
" id="C0_0_b146110fd3"/>
    </defs>
    <g clip-path="url(#pa00c288489)">
     <use style="fill:#2d1e3e;" x="91.2" xlink:href="#C0_0_b146110fd3" y="210.828696"/>
    </g>
    <g clip-path="url(#pa00c288489)">
     <use style="fill:#2d1e3e;" x="92.947651" xlink:href="#C0_0_b146110fd3" y="210.66865"/>
    </g>
    <g clip-path="url(#pa00c288489)">
     <use style="fill:#2d1e3e;" x="94.695302" xlink:href="#C0_0_b146110fd3" y="210.508604"/>
    </g>
    <g clip-path="url(#pa00c288489)">
     <use style="fill:#2d1e3e;" x="96.442953" xlink:href="#C0_0_b146110fd3" y="210.348558"/>
    </g>
    <g clip-path="url(#pa00c288489)">
     <use style="fill:#2d1e3e;" x="98.190604" xlink:href="#C0_0_b146110fd3" y="210.188512"/>
    </g>
    <g clip-path="url(#pa00c288489)">
     <use style="fill:#2d1e3e;" x="99.938255" xlink:href="#C0_0_b146110fd3" y="210.028466"/>
    </g>
    <g clip-path="url(#pa00c288489)">
     <use style="fill:#2d1e3e;" x="101.685906" xlink:href="#C0_0_b146110fd3" y="209.86842"/>
    </g>
    <g clip-path="url(#pa00c288489)">
     <use style="fill:#2d1e3e;" x="103.433557" xlink:href="#C0_0_b146110fd3" y="209.708374"/>
    </g>
    <g clip-path="url(#pa00c288489)">
     <use style="fill:#2d1e3e;" x="105.181208" xlink:href="#C0_0_b146110fd3" y="209.548328"/>
    </g>
    <g clip-path="url(#pa00c288489)">
     <use style="fill:#2d1e3e;" x="106.928859" xlink:href="#C0_0_b146110fd3" y="209.388282"/>
    </g>
    <g clip-path="url(#pa00c288489)">
     <use style="fill:#2d1e3e;" x="108.67651" xlink:href="#C0_0_b146110fd3" y="209.228236"/>
    </g>
    <g clip-path="url(#pa00c288489)">
     <use style="fill:#2d1e3e;" x="110.424161" xlink:href="#C0_0_b146110fd3" y="209.06819"/>
    </g>
    <g clip-path="url(#pa00c288489)">
     <use style="fill:#2d1e3e;" x="112.171812" xlink:href="#C0_0_b146110fd3" y="208.908144"/>
    </g>
    <g clip-path="url(#pa00c288489)">
     <use style="fill:#2d1e3e;" x="113.919463" xlink:href="#C0_0_b146110fd3" y="208.748098"/>
    </g>
    <g clip-path="url(#pa00c288489)">
     <use style="fill:#2d1e3e;" x="115.667114" xlink:href="#C0_0_b146110fd3" y="208.588052"/>
    </g>
    <g clip-path="url(#pa00c288489)">
     <use style="fill:#2d1e3e;" x="117.414765" xlink:href="#C0_0_b146110fd3" y="208.428005"/>
    </g>
    <g clip-path="url(#pa00c288489)">
     <use style="fill:#2d1e3e;" x="119.162416" xlink:href="#C0_0_b146110fd3" y="208.267959"/>
    </g>
    <g clip-path="url(#pa00c288489)">
     <use style="fill:#2d1e3e;" x="120.910067" xlink:href="#C0_0_b146110fd3" y="208.107913"/>
    </g>
    <g clip-path="url(#pa00c288489)">
     <use style="fill:#2d1e3e;" x="122.657718" xlink:href="#C0_0_b146110fd3" y="207.947867"/>
    </g>
    <g clip-path="url(#pa00c288489)">
     <use style="fill:#2d1e3e;" x="124.405369" xlink:href="#C0_0_b146110fd3" y="207.787821"/>
    </g>
    <g clip-path="url(#pa00c288489)">
     <use style="fill:#2d1e3e;" x="126.15302" xlink:href="#C0_0_b146110fd3" y="207.627775"/>
    </g>
    <g clip-path="url(#pa00c288489)">
     <use style="fill:#2d1e3e;" x="127.900671" xlink:href="#C0_0_b146110fd3" y="207.467729"/>
    </g>
    <g clip-path="url(#pa00c288489)">
     <use style="fill:#2d1e3e;" x="129.648322" xlink:href="#C0_0_b146110fd3" y="207.307683"/>
    </g>
    <g clip-path="url(#pa00c288489)">
     <use style="fill:#2d1e3e;" x="131.395973" xlink:href="#C0_0_b146110fd3" y="207.147637"/>
    </g>
    <g clip-path="url(#pa00c288489)">
     <use style="fill:#5b3665;" x="133.143624" xlink:href="#C0_0_b146110fd3" y="206.958415"/>
    </g>
    <g clip-path="url(#pa00c288489)">
     <use style="fill:#5b3665;" x="134.891275" xlink:href="#C0_0_b146110fd3" y="206.74142"/>
    </g>
    <g clip-path="url(#pa00c288489)">
     <use style="fill:#5b3665;" x="136.638926" xlink:href="#C0_0_b146110fd3" y="206.524425"/>
    </g>
    <g clip-path="url(#pa00c288489)">
     <use style="fill:#5b3665;" x="138.386577" xlink:href="#C0_0_b146110fd3" y="206.30743"/>
    </g>
    <g clip-path="url(#pa00c288489)">
     <use style="fill:#5b3665;" x="140.134228" xlink:href="#C0_0_b146110fd3" y="206.090435"/>
    </g>
    <g clip-path="url(#pa00c288489)">
     <use style="fill:#5b3665;" x="141.881879" xlink:href="#C0_0_b146110fd3" y="205.87344"/>
    </g>
    <g clip-path="url(#pa00c288489)">
     <use style="fill:#5b3665;" x="143.62953" xlink:href="#C0_0_b146110fd3" y="205.656445"/>
    </g>
    <g clip-path="url(#pa00c288489)">
     <use style="fill:#5b3665;" x="145.377181" xlink:href="#C0_0_b146110fd3" y="205.43945"/>
    </g>
    <g clip-path="url(#pa00c288489)">
     <use style="fill:#5b3665;" x="147.124832" xlink:href="#C0_0_b146110fd3" y="205.222455"/>
    </g>
    <g clip-path="url(#pa00c288489)">
     <use style="fill:#5b3665;" x="148.872483" xlink:href="#C0_0_b146110fd3" y="205.00546"/>
    </g>
    <g clip-path="url(#pa00c288489)">
     <use style="fill:#5b3665;" x="150.620134" xlink:href="#C0_0_b146110fd3" y="204.788465"/>
    </g>
    <g clip-path="url(#pa00c288489)">
     <use style="fill:#5b3665;" x="152.367785" xlink:href="#C0_0_b146110fd3" y="204.57147"/>
    </g>
    <g clip-path="url(#pa00c288489)">
     <use style="fill:#5b3665;" x="154.115436" xlink:href="#C0_0_b146110fd3" y="204.354475"/>
    </g>
    <g clip-path="url(#pa00c288489)">
     <use style="fill:#5b3665;" x="155.863087" xlink:href="#C0_0_b146110fd3" y="204.13748"/>
    </g>
    <g clip-path="url(#pa00c288489)">
     <use style="fill:#5b3665;" x="157.610738" xlink:href="#C0_0_b146110fd3" y="203.920486"/>
    </g>
    <g clip-path="url(#pa00c288489)">
     <use style="fill:#5b3665;" x="159.358389" xlink:href="#C0_0_b146110fd3" y="203.703491"/>
    </g>
    <g clip-path="url(#pa00c288489)">
     <use style="fill:#5b3665;" x="161.10604" xlink:href="#C0_0_b146110fd3" y="203.486496"/>
    </g>
    <g clip-path="url(#pa00c288489)">
     <use style="fill:#5b3665;" x="162.853691" xlink:href="#C0_0_b146110fd3" y="203.269501"/>
    </g>
    <g clip-path="url(#pa00c288489)">
     <use style="fill:#5b3665;" x="164.601342" xlink:href="#C0_0_b146110fd3" y="203.052506"/>
    </g>
    <g clip-path="url(#pa00c288489)">
     <use style="fill:#5b3665;" x="166.348993" xlink:href="#C0_0_b146110fd3" y="202.835511"/>
    </g>
    <g clip-path="url(#pa00c288489)">
     <use style="fill:#5b3665;" x="168.096644" xlink:href="#C0_0_b146110fd3" y="202.618516"/>
    </g>
    <g clip-path="url(#pa00c288489)">
     <use style="fill:#5b3665;" x="169.844295" xlink:href="#C0_0_b146110fd3" y="202.401521"/>
    </g>
    <g clip-path="url(#pa00c288489)">
     <use style="fill:#5b3665;" x="171.591946" xlink:href="#C0_0_b146110fd3" y="202.184526"/>
    </g>
    <g clip-path="url(#pa00c288489)">
     <use style="fill:#5b3665;" x="173.339597" xlink:href="#C0_0_b146110fd3" y="201.967531"/>
    </g>
    <g clip-path="url(#pa00c288489)">
     <use style="fill:#5b3665;" x="175.087248" xlink:href="#C0_0_b146110fd3" y="201.750536"/>
    </g>
    <g clip-path="url(#pa00c288489)">
     <use style="fill:#5b3665;" x="176.834899" xlink:href="#C0_0_b146110fd3" y="201.533541"/>
    </g>
    <g clip-path="url(#pa00c288489)">
     <use style="fill:#5b3665;" x="178.58255" xlink:href="#C0_0_b146110fd3" y="201.316546"/>
    </g>
    <g clip-path="url(#pa00c288489)">
     <use style="fill:#5b3665;" x="180.330201" xlink:href="#C0_0_b146110fd3" y="201.099551"/>
    </g>
    <g clip-path="url(#pa00c288489)">
     <use style="fill:#5b3665;" x="182.077852" xlink:href="#C0_0_b146110fd3" y="200.882556"/>
    </g>
    <g clip-path="url(#pa00c288489)">
     <use style="fill:#5b3665;" x="183.825503" xlink:href="#C0_0_b146110fd3" y="200.665561"/>
    </g>
    <g clip-path="url(#pa00c288489)">
     <use style="fill:#5b3665;" x="185.573154" xlink:href="#C0_0_b146110fd3" y="200.448566"/>
    </g>
    <g clip-path="url(#pa00c288489)">
     <use style="fill:#915584;" x="187.320805" xlink:href="#C0_0_b146110fd3" y="200.209689"/>
    </g>
    <g clip-path="url(#pa00c288489)">
     <use style="fill:#915584;" x="189.068456" xlink:href="#C0_0_b146110fd3" y="199.910216"/>
    </g>
    <g clip-path="url(#pa00c288489)">
     <use style="fill:#915584;" x="190.816107" xlink:href="#C0_0_b146110fd3" y="199.610744"/>
    </g>
    <g clip-path="url(#pa00c288489)">
     <use style="fill:#ac6a90;" x="192.563758" xlink:href="#C0_0_b146110fd3" y="199.310991"/>
    </g>
    <g clip-path="url(#pa00c288489)">
     <use style="fill:#bf7c99;" x="194.311409" xlink:href="#C0_0_b146110fd3" y="198.940262"/>
    </g>
    <g clip-path="url(#pa00c288489)">
     <use style="fill:#bf7c99;" x="196.05906" xlink:href="#C0_0_b146110fd3" y="198.509217"/>
    </g>
    <g clip-path="url(#pa00c288489)">
     <use style="fill:#bf7c99;" x="197.806711" xlink:href="#C0_0_b146110fd3" y="198.078173"/>
    </g>
    <g clip-path="url(#pa00c288489)">
     <use style="fill:#bf7c99;" x="199.554362" xlink:href="#C0_0_b146110fd3" y="197.647129"/>
    </g>
    <g clip-path="url(#pa00c288489)">
     <use style="fill:#bf7c99;" x="201.302013" xlink:href="#C0_0_b146110fd3" y="197.216084"/>
    </g>
    <g clip-path="url(#pa00c288489)">
     <use style="fill:#bf7c99;" x="203.049664" xlink:href="#C0_0_b146110fd3" y="196.78504"/>
    </g>
    <g clip-path="url(#pa00c288489)">
     <use style="fill:#bf7c99;" x="204.797315" xlink:href="#C0_0_b146110fd3" y="196.353996"/>
    </g>
    <g clip-path="url(#pa00c288489)">
     <use style="fill:#cd8ea1;" x="206.544966" xlink:href="#C0_0_b146110fd3" y="195.871333"/>
    </g>
    <g clip-path="url(#pa00c288489)">
     <use style="fill:#cd8ea1;" x="208.292617" xlink:href="#C0_0_b146110fd3" y="195.338173"/>
    </g>
    <g clip-path="url(#pa00c288489)">
     <use style="fill:#cd8ea1;" x="210.040268" xlink:href="#C0_0_b146110fd3" y="194.805014"/>
    </g>
    <g clip-path="url(#pa00c288489)">
     <use style="fill:#cd8ea1;" x="211.787919" xlink:href="#C0_0_b146110fd3" y="194.271854"/>
    </g>
    <g clip-path="url(#pa00c288489)">
     <use style="fill:#cd8ea1;" x="213.53557" xlink:href="#C0_0_b146110fd3" y="193.738694"/>
    </g>
    <g clip-path="url(#pa00c288489)">
     <use style="fill:#cd8ea1;" x="215.283221" xlink:href="#C0_0_b146110fd3" y="193.205535"/>
    </g>
    <g clip-path="url(#pa00c288489)">
     <use style="fill:#cd8ea1;" x="217.030872" xlink:href="#C0_0_b146110fd3" y="192.672375"/>
    </g>
    <g clip-path="url(#pa00c288489)">
     <use style="fill:#cd8ea1;" x="218.778523" xlink:href="#C0_0_b146110fd3" y="192.139216"/>
    </g>
    <g clip-path="url(#pa00c288489)">
     <use style="fill:#cd8ea1;" x="220.526174" xlink:href="#C0_0_b146110fd3" y="191.606056"/>
    </g>
    <g clip-path="url(#pa00c288489)">
     <use style="fill:#cd8ea1;" x="222.273826" xlink:href="#C0_0_b146110fd3" y="191.072896"/>
    </g>
    <g clip-path="url(#pa00c288489)">
     <use style="fill:#cd8ea1;" x="224.021477" xlink:href="#C0_0_b146110fd3" y="190.539737"/>
    </g>
    <g clip-path="url(#pa00c288489)">
     <use style="fill:#cd8ea1;" x="225.769128" xlink:href="#C0_0_b146110fd3" y="190.006577"/>
    </g>
    <g clip-path="url(#pa00c288489)">
     <use style="fill:#cd8ea1;" x="227.516779" xlink:href="#C0_0_b146110fd3" y="189.473418"/>
    </g>
    <g clip-path="url(#pa00c288489)">
     <use style="fill:#e0afb3;" x="229.26443" xlink:href="#C0_0_b146110fd3" y="188.919919"/>
    </g>
    <g clip-path="url(#pa00c288489)">
     <use style="fill:#e0afb3;" x="231.012081" xlink:href="#C0_0_b146110fd3" y="188.036229"/>
    </g>
    <g clip-path="url(#pa00c288489)">
     <use style="fill:#e0afb3;" x="232.759732" xlink:href="#C0_0_b146110fd3" y="187.152539"/>
    </g>
    <g clip-path="url(#pa00c288489)">
     <use style="fill:#e3b5b7;" x="234.507383" xlink:href="#C0_0_b146110fd3" y="186.183847"/>
    </g>
    <g clip-path="url(#pa00c288489)">
     <use style="fill:#e3b5b7;" x="236.255034" xlink:href="#C0_0_b146110fd3" y="185.167604"/>
    </g>
    <g clip-path="url(#pa00c288489)">
     <use style="fill:#ebcbc6;" x="238.002685" xlink:href="#C0_0_b146110fd3" y="183.99426"/>
    </g>
    <g clip-path="url(#pa00c288489)">
     <use style="fill:#ebcbc6;" x="239.750336" xlink:href="#C0_0_b146110fd3" y="182.53028"/>
    </g>
    <g clip-path="url(#pa00c288489)">
     <use style="fill:#edd1cb;" x="241.497987" xlink:href="#C0_0_b146110fd3" y="180.890404"/>
    </g>
    <g clip-path="url(#pa00c288489)">
     <use style="fill:#edd1cb;" x="243.245638" xlink:href="#C0_0_b146110fd3" y="179.221212"/>
    </g>
    <g clip-path="url(#pa00c288489)">
     <use style="fill:#edd1cb;" x="244.993289" xlink:href="#C0_0_b146110fd3" y="177.55202"/>
    </g>
    <g clip-path="url(#pa00c288489)">
     <use style="fill:#edd1cb;" x="246.74094" xlink:href="#C0_0_b146110fd3" y="175.882828"/>
    </g>
    <g clip-path="url(#pa00c288489)">
     <use style="fill:#edd1cb;" x="248.488591" xlink:href="#C0_0_b146110fd3" y="174.213636"/>
    </g>
    <g clip-path="url(#pa00c288489)">
     <use style="fill:#edd1cb;" x="250.236242" xlink:href="#C0_0_b146110fd3" y="172.544444"/>
    </g>
    <g clip-path="url(#pa00c288489)">
     <use style="fill:#edd1cb;" x="251.983893" xlink:href="#C0_0_b146110fd3" y="170.875252"/>
    </g>
    <g clip-path="url(#pa00c288489)">
     <use style="fill:#edd1cb;" x="253.731544" xlink:href="#C0_0_b146110fd3" y="169.20606"/>
    </g>
    <g clip-path="url(#pa00c288489)">
     <use style="fill:#edd1cb;" x="255.479195" xlink:href="#C0_0_b146110fd3" y="167.536867"/>
    </g>
    <g clip-path="url(#pa00c288489)">
     <use style="fill:#edd1cb;" x="257.226846" xlink:href="#C0_0_b146110fd3" y="165.867675"/>
    </g>
    <g clip-path="url(#pa00c288489)">
     <use style="fill:#edd1cb;" x="258.974497" xlink:href="#C0_0_b146110fd3" y="164.198483"/>
    </g>
    <g clip-path="url(#pa00c288489)">
     <use style="fill:#edd1cb;" x="260.722148" xlink:href="#C0_0_b146110fd3" y="162.529291"/>
    </g>
    <g clip-path="url(#pa00c288489)">
     <use style="fill:#edd1cb;" x="262.469799" xlink:href="#C0_0_b146110fd3" y="160.860099"/>
    </g>
    <g clip-path="url(#pa00c288489)">
     <use style="fill:#edd1cb;" x="264.21745" xlink:href="#C0_0_b146110fd3" y="159.190907"/>
    </g>
    <g clip-path="url(#pa00c288489)">
     <use style="fill:#edd1cb;" x="265.965101" xlink:href="#C0_0_b146110fd3" y="157.521715"/>
    </g>
    <g clip-path="url(#pa00c288489)">
     <use style="fill:#edd1cb;" x="267.712752" xlink:href="#C0_0_b146110fd3" y="155.852523"/>
    </g>
    <g clip-path="url(#pa00c288489)">
     <use style="fill:#edd1cb;" x="269.460403" xlink:href="#C0_0_b146110fd3" y="154.183331"/>
    </g>
    <g clip-path="url(#pa00c288489)">
     <use style="fill:#edd1cb;" x="271.208054" xlink:href="#C0_0_b146110fd3" y="152.514139"/>
    </g>
    <g clip-path="url(#pa00c288489)">
     <use style="fill:#edd1cb;" x="272.955705" xlink:href="#C0_0_b146110fd3" y="150.844947"/>
    </g>
    <g clip-path="url(#pa00c288489)">
     <use style="fill:#edd1cb;" x="274.703356" xlink:href="#C0_0_b146110fd3" y="149.175755"/>
    </g>
    <g clip-path="url(#pa00c288489)">
     <use style="fill:#edd1cb;" x="276.451007" xlink:href="#C0_0_b146110fd3" y="147.506563"/>
    </g>
    <g clip-path="url(#pa00c288489)">
     <use style="fill:#edd1cb;" x="278.198658" xlink:href="#C0_0_b146110fd3" y="145.837371"/>
    </g>
    <g clip-path="url(#pa00c288489)">
     <use style="fill:#edd1cb;" x="279.946309" xlink:href="#C0_0_b146110fd3" y="144.168179"/>
    </g>
    <g clip-path="url(#pa00c288489)">
     <use style="fill:#edd1cb;" x="281.69396" xlink:href="#C0_0_b146110fd3" y="142.498986"/>
    </g>
    <g clip-path="url(#pa00c288489)">
     <use style="fill:#edd1cb;" x="283.441611" xlink:href="#C0_0_b146110fd3" y="140.829794"/>
    </g>
    <g clip-path="url(#pa00c288489)">
     <use style="fill:#edd1cb;" x="285.189262" xlink:href="#C0_0_b146110fd3" y="139.160602"/>
    </g>
    <g clip-path="url(#pa00c288489)">
     <use style="fill:#edd1cb;" x="286.936913" xlink:href="#C0_0_b146110fd3" y="137.49141"/>
    </g>
    <g clip-path="url(#pa00c288489)">
     <use style="fill:#edd1cb;" x="288.684564" xlink:href="#C0_0_b146110fd3" y="135.822218"/>
    </g>
    <g clip-path="url(#pa00c288489)">
     <use style="fill:#edd1cb;" x="290.432215" xlink:href="#C0_0_b146110fd3" y="134.153026"/>
    </g>
    <g clip-path="url(#pa00c288489)">
     <use style="fill:#edd1cb;" x="292.179866" xlink:href="#C0_0_b146110fd3" y="132.483834"/>
    </g>
    <g clip-path="url(#pa00c288489)">
     <use style="fill:#edd1cb;" x="293.927517" xlink:href="#C0_0_b146110fd3" y="130.814642"/>
    </g>
    <g clip-path="url(#pa00c288489)">
     <use style="fill:#edd1cb;" x="295.675168" xlink:href="#C0_0_b146110fd3" y="129.14545"/>
    </g>
    <g clip-path="url(#pa00c288489)">
     <use style="fill:#edd1cb;" x="297.422819" xlink:href="#C0_0_b146110fd3" y="127.476258"/>
    </g>
    <g clip-path="url(#pa00c288489)">
     <use style="fill:#edd1cb;" x="299.17047" xlink:href="#C0_0_b146110fd3" y="125.807066"/>
    </g>
    <g clip-path="url(#pa00c288489)">
     <use style="fill:#edd1cb;" x="300.918121" xlink:href="#C0_0_b146110fd3" y="124.137874"/>
    </g>
    <g clip-path="url(#pa00c288489)">
     <use style="fill:#edd1cb;" x="302.665772" xlink:href="#C0_0_b146110fd3" y="122.468682"/>
    </g>
    <g clip-path="url(#pa00c288489)">
     <use style="fill:#edd1cb;" x="304.413423" xlink:href="#C0_0_b146110fd3" y="120.79949"/>
    </g>
    <g clip-path="url(#pa00c288489)">
     <use style="fill:#edd1cb;" x="306.161074" xlink:href="#C0_0_b146110fd3" y="119.130297"/>
    </g>
    <g clip-path="url(#pa00c288489)">
     <use style="fill:#edd1cb;" x="307.908725" xlink:href="#C0_0_b146110fd3" y="117.461105"/>
    </g>
    <g clip-path="url(#pa00c288489)">
     <use style="fill:#edd1cb;" x="309.656376" xlink:href="#C0_0_b146110fd3" y="115.791913"/>
    </g>
    <g clip-path="url(#pa00c288489)">
     <use style="fill:#edd1cb;" x="311.404027" xlink:href="#C0_0_b146110fd3" y="114.122721"/>
    </g>
    <g clip-path="url(#pa00c288489)">
     <use style="fill:#edd1cb;" x="313.151678" xlink:href="#C0_0_b146110fd3" y="112.453529"/>
    </g>
    <g clip-path="url(#pa00c288489)">
     <use style="fill:#edd1cb;" x="314.899329" xlink:href="#C0_0_b146110fd3" y="110.784337"/>
    </g>
    <g clip-path="url(#pa00c288489)">
     <use style="fill:#edd1cb;" x="316.64698" xlink:href="#C0_0_b146110fd3" y="109.115145"/>
    </g>
    <g clip-path="url(#pa00c288489)">
     <use style="fill:#edd1cb;" x="318.394631" xlink:href="#C0_0_b146110fd3" y="107.445953"/>
    </g>
    <g clip-path="url(#pa00c288489)">
     <use style="fill:#edd1cb;" x="320.142282" xlink:href="#C0_0_b146110fd3" y="105.776761"/>
    </g>
    <g clip-path="url(#pa00c288489)">
     <use style="fill:#edd1cb;" x="321.889933" xlink:href="#C0_0_b146110fd3" y="104.107569"/>
    </g>
    <g clip-path="url(#pa00c288489)">
     <use style="fill:#edd1cb;" x="323.637584" xlink:href="#C0_0_b146110fd3" y="102.438377"/>
    </g>
    <g clip-path="url(#pa00c288489)">
     <use style="fill:#edd1cb;" x="325.385235" xlink:href="#C0_0_b146110fd3" y="100.769185"/>
    </g>
    <g clip-path="url(#pa00c288489)">
     <use style="fill:#edd1cb;" x="327.132886" xlink:href="#C0_0_b146110fd3" y="99.099993"/>
    </g>
    <g clip-path="url(#pa00c288489)">
     <use style="fill:#edd1cb;" x="328.880537" xlink:href="#C0_0_b146110fd3" y="97.430801"/>
    </g>
    <g clip-path="url(#pa00c288489)">
     <use style="fill:#edd1cb;" x="330.628188" xlink:href="#C0_0_b146110fd3" y="95.761608"/>
    </g>
    <g clip-path="url(#pa00c288489)">
     <use style="fill:#edd1cb;" x="332.375839" xlink:href="#C0_0_b146110fd3" y="94.092416"/>
    </g>
    <g clip-path="url(#pa00c288489)">
     <use style="fill:#edd1cb;" x="334.12349" xlink:href="#C0_0_b146110fd3" y="92.423224"/>
    </g>
    <g clip-path="url(#pa00c288489)">
     <use style="fill:#edd1cb;" x="335.871141" xlink:href="#C0_0_b146110fd3" y="90.754032"/>
    </g>
    <g clip-path="url(#pa00c288489)">
     <use style="fill:#edd1cb;" x="337.618792" xlink:href="#C0_0_b146110fd3" y="89.08484"/>
    </g>
    <g clip-path="url(#pa00c288489)">
     <use style="fill:#edd1cb;" x="339.366443" xlink:href="#C0_0_b146110fd3" y="87.415648"/>
    </g>
    <g clip-path="url(#pa00c288489)">
     <use style="fill:#edd1cb;" x="341.114094" xlink:href="#C0_0_b146110fd3" y="85.746456"/>
    </g>
    <g clip-path="url(#pa00c288489)">
     <use style="fill:#edd1cb;" x="342.861745" xlink:href="#C0_0_b146110fd3" y="84.077264"/>
    </g>
    <g clip-path="url(#pa00c288489)">
     <use style="fill:#edd1cb;" x="344.609396" xlink:href="#C0_0_b146110fd3" y="82.408072"/>
    </g>
    <g clip-path="url(#pa00c288489)">
     <use style="fill:#edd1cb;" x="346.357047" xlink:href="#C0_0_b146110fd3" y="80.73888"/>
    </g>
    <g clip-path="url(#pa00c288489)">
     <use style="fill:#edd1cb;" x="348.104698" xlink:href="#C0_0_b146110fd3" y="79.069688"/>
    </g>
    <g clip-path="url(#pa00c288489)">
     <use style="fill:#edd1cb;" x="349.852349" xlink:href="#C0_0_b146110fd3" y="77.400496"/>
    </g>
    <g clip-path="url(#pa00c288489)">
     <use style="fill:#edd1cb;" x="351.6" xlink:href="#C0_0_b146110fd3" y="75.731304"/>
    </g>
   </g>
   <g id="PathCollection_2"/>
   <g id="PathCollection_3"/>
   <g id="PathCollection_4"/>
   <g id="PathCollection_5"/>
   <g id="PathCollection_6"/>
   <g id="matplotlib.axis_1">
    <g id="xtick_1">
     <g id="line2d_1">
      <defs>
       <path d="M 0 0 
L 0 3.5 
" id="md33fecb46e" style="stroke:#000000;stroke-width:0.8;"/>
      </defs>
      <g>
       <use style="stroke:#000000;stroke-width:0.8;" x="54" xlink:href="#md33fecb46e" y="252"/>
      </g>
     </g>
     <g id="text_1">
      <!-- −0.125 -->
      <defs>
       <path d="M 10.59375 35.5 
L 73.1875 35.5 
L 73.1875 27.203125 
L 10.59375 27.203125 
z
" id="DejaVuSans-8722"/>
       <path d="M 31.78125 66.40625 
Q 24.171875 66.40625 20.328125 58.90625 
Q 16.5 51.421875 16.5 36.375 
Q 16.5 21.390625 20.328125 13.890625 
Q 24.171875 6.390625 31.78125 6.390625 
Q 39.453125 6.390625 43.28125 13.890625 
Q 47.125 21.390625 47.125 36.375 
Q 47.125 51.421875 43.28125 58.90625 
Q 39.453125 66.40625 31.78125 66.40625 
z
M 31.78125 74.21875 
Q 44.046875 74.21875 50.515625 64.515625 
Q 56.984375 54.828125 56.984375 36.375 
Q 56.984375 17.96875 50.515625 8.265625 
Q 44.046875 -1.421875 31.78125 -1.421875 
Q 19.53125 -1.421875 13.0625 8.265625 
Q 6.59375 17.96875 6.59375 36.375 
Q 6.59375 54.828125 13.0625 64.515625 
Q 19.53125 74.21875 31.78125 74.21875 
z
" id="DejaVuSans-48"/>
       <path d="M 10.6875 12.40625 
L 21 12.40625 
L 21 0 
L 10.6875 0 
z
" id="DejaVuSans-46"/>
       <path d="M 12.40625 8.296875 
L 28.515625 8.296875 
L 28.515625 63.921875 
L 10.984375 60.40625 
L 10.984375 69.390625 
L 28.421875 72.90625 
L 38.28125 72.90625 
L 38.28125 8.296875 
L 54.390625 8.296875 
L 54.390625 0 
L 12.40625 0 
z
" id="DejaVuSans-49"/>
       <path d="M 19.1875 8.296875 
L 53.609375 8.296875 
L 53.609375 0 
L 7.328125 0 
L 7.328125 8.296875 
Q 12.9375 14.109375 22.625 23.890625 
Q 32.328125 33.6875 34.8125 36.53125 
Q 39.546875 41.84375 41.421875 45.53125 
Q 43.3125 49.21875 43.3125 52.78125 
Q 43.3125 58.59375 39.234375 62.25 
Q 35.15625 65.921875 28.609375 65.921875 
Q 23.96875 65.921875 18.8125 64.3125 
Q 13.671875 62.703125 7.8125 59.421875 
L 7.8125 69.390625 
Q 13.765625 71.78125 18.9375 73 
Q 24.125 74.21875 28.421875 74.21875 
Q 39.75 74.21875 46.484375 68.546875 
Q 53.21875 62.890625 53.21875 53.421875 
Q 53.21875 48.921875 51.53125 44.890625 
Q 49.859375 40.875 45.40625 35.40625 
Q 44.1875 33.984375 37.640625 27.21875 
Q 31.109375 20.453125 19.1875 8.296875 
z
" id="DejaVuSans-50"/>
       <path d="M 10.796875 72.90625 
L 49.515625 72.90625 
L 49.515625 64.59375 
L 19.828125 64.59375 
L 19.828125 46.734375 
Q 21.96875 47.46875 24.109375 47.828125 
Q 26.265625 48.1875 28.421875 48.1875 
Q 40.625 48.1875 47.75 41.5 
Q 54.890625 34.8125 54.890625 23.390625 
Q 54.890625 11.625 47.5625 5.09375 
Q 40.234375 -1.421875 26.90625 -1.421875 
Q 22.3125 -1.421875 17.546875 -0.640625 
Q 12.796875 0.140625 7.71875 1.703125 
L 7.71875 11.625 
Q 12.109375 9.234375 16.796875 8.0625 
Q 21.484375 6.890625 26.703125 6.890625 
Q 35.15625 6.890625 40.078125 11.328125 
Q 45.015625 15.765625 45.015625 23.390625 
Q 45.015625 31 40.078125 35.4375 
Q 35.15625 39.890625 26.703125 39.890625 
Q 22.75 39.890625 18.8125 39.015625 
Q 14.890625 38.140625 10.796875 36.28125 
z
" id="DejaVuSans-53"/>
      </defs>
      <g transform="translate(35.496094 266.598437)scale(0.1 -0.1)">
       <use xlink:href="#DejaVuSans-8722"/>
       <use x="83.789062" xlink:href="#DejaVuSans-48"/>
       <use x="147.412109" xlink:href="#DejaVuSans-46"/>
       <use x="179.199219" xlink:href="#DejaVuSans-49"/>
       <use x="242.822266" xlink:href="#DejaVuSans-50"/>
       <use x="306.445312" xlink:href="#DejaVuSans-53"/>
      </g>
     </g>
    </g>
    <g id="xtick_2">
     <g id="line2d_2">
      <g>
       <use style="stroke:#000000;stroke-width:0.8;" x="91.2" xlink:href="#md33fecb46e" y="252"/>
      </g>
     </g>
     <g id="text_2">
      <!-- −0.100 -->
      <g transform="translate(72.696094 266.598437)scale(0.1 -0.1)">
       <use xlink:href="#DejaVuSans-8722"/>
       <use x="83.789062" xlink:href="#DejaVuSans-48"/>
       <use x="147.412109" xlink:href="#DejaVuSans-46"/>
       <use x="179.199219" xlink:href="#DejaVuSans-49"/>
       <use x="242.822266" xlink:href="#DejaVuSans-48"/>
       <use x="306.445312" xlink:href="#DejaVuSans-48"/>
      </g>
     </g>
    </g>
    <g id="xtick_3">
     <g id="line2d_3">
      <g>
       <use style="stroke:#000000;stroke-width:0.8;" x="128.4" xlink:href="#md33fecb46e" y="252"/>
      </g>
     </g>
     <g id="text_3">
      <!-- −0.075 -->
      <defs>
       <path d="M 8.203125 72.90625 
L 55.078125 72.90625 
L 55.078125 68.703125 
L 28.609375 0 
L 18.3125 0 
L 43.21875 64.59375 
L 8.203125 64.59375 
z
" id="DejaVuSans-55"/>
      </defs>
      <g transform="translate(109.896094 266.598437)scale(0.1 -0.1)">
       <use xlink:href="#DejaVuSans-8722"/>
       <use x="83.789062" xlink:href="#DejaVuSans-48"/>
       <use x="147.412109" xlink:href="#DejaVuSans-46"/>
       <use x="179.199219" xlink:href="#DejaVuSans-48"/>
       <use x="242.822266" xlink:href="#DejaVuSans-55"/>
       <use x="306.445312" xlink:href="#DejaVuSans-53"/>
      </g>
     </g>
    </g>
    <g id="xtick_4">
     <g id="line2d_4">
      <g>
       <use style="stroke:#000000;stroke-width:0.8;" x="165.6" xlink:href="#md33fecb46e" y="252"/>
      </g>
     </g>
     <g id="text_4">
      <!-- −0.050 -->
      <g transform="translate(147.096094 266.598437)scale(0.1 -0.1)">
       <use xlink:href="#DejaVuSans-8722"/>
       <use x="83.789062" xlink:href="#DejaVuSans-48"/>
       <use x="147.412109" xlink:href="#DejaVuSans-46"/>
       <use x="179.199219" xlink:href="#DejaVuSans-48"/>
       <use x="242.822266" xlink:href="#DejaVuSans-53"/>
       <use x="306.445312" xlink:href="#DejaVuSans-48"/>
      </g>
     </g>
    </g>
    <g id="xtick_5">
     <g id="line2d_5">
      <g>
       <use style="stroke:#000000;stroke-width:0.8;" x="202.8" xlink:href="#md33fecb46e" y="252"/>
      </g>
     </g>
     <g id="text_5">
      <!-- −0.025 -->
      <g transform="translate(184.296094 266.598437)scale(0.1 -0.1)">
       <use xlink:href="#DejaVuSans-8722"/>
       <use x="83.789062" xlink:href="#DejaVuSans-48"/>
       <use x="147.412109" xlink:href="#DejaVuSans-46"/>
       <use x="179.199219" xlink:href="#DejaVuSans-48"/>
       <use x="242.822266" xlink:href="#DejaVuSans-50"/>
       <use x="306.445312" xlink:href="#DejaVuSans-53"/>
      </g>
     </g>
    </g>
    <g id="xtick_6">
     <g id="line2d_6">
      <g>
       <use style="stroke:#000000;stroke-width:0.8;" x="240" xlink:href="#md33fecb46e" y="252"/>
      </g>
     </g>
     <g id="text_6">
      <!-- 0.000 -->
      <g transform="translate(225.685938 266.598437)scale(0.1 -0.1)">
       <use xlink:href="#DejaVuSans-48"/>
       <use x="63.623047" xlink:href="#DejaVuSans-46"/>
       <use x="95.410156" xlink:href="#DejaVuSans-48"/>
       <use x="159.033203" xlink:href="#DejaVuSans-48"/>
       <use x="222.65625" xlink:href="#DejaVuSans-48"/>
      </g>
     </g>
    </g>
    <g id="xtick_7">
     <g id="line2d_7">
      <g>
       <use style="stroke:#000000;stroke-width:0.8;" x="277.2" xlink:href="#md33fecb46e" y="252"/>
      </g>
     </g>
     <g id="text_7">
      <!-- 0.025 -->
      <g transform="translate(262.885938 266.598437)scale(0.1 -0.1)">
       <use xlink:href="#DejaVuSans-48"/>
       <use x="63.623047" xlink:href="#DejaVuSans-46"/>
       <use x="95.410156" xlink:href="#DejaVuSans-48"/>
       <use x="159.033203" xlink:href="#DejaVuSans-50"/>
       <use x="222.65625" xlink:href="#DejaVuSans-53"/>
      </g>
     </g>
    </g>
    <g id="xtick_8">
     <g id="line2d_8">
      <g>
       <use style="stroke:#000000;stroke-width:0.8;" x="314.4" xlink:href="#md33fecb46e" y="252"/>
      </g>
     </g>
     <g id="text_8">
      <!-- 0.050 -->
      <g transform="translate(300.085938 266.598437)scale(0.1 -0.1)">
       <use xlink:href="#DejaVuSans-48"/>
       <use x="63.623047" xlink:href="#DejaVuSans-46"/>
       <use x="95.410156" xlink:href="#DejaVuSans-48"/>
       <use x="159.033203" xlink:href="#DejaVuSans-53"/>
       <use x="222.65625" xlink:href="#DejaVuSans-48"/>
      </g>
     </g>
    </g>
    <g id="xtick_9">
     <g id="line2d_9">
      <g>
       <use style="stroke:#000000;stroke-width:0.8;" x="351.6" xlink:href="#md33fecb46e" y="252"/>
      </g>
     </g>
     <g id="text_9">
      <!-- 0.075 -->
      <g transform="translate(337.285938 266.598437)scale(0.1 -0.1)">
       <use xlink:href="#DejaVuSans-48"/>
       <use x="63.623047" xlink:href="#DejaVuSans-46"/>
       <use x="95.410156" xlink:href="#DejaVuSans-48"/>
       <use x="159.033203" xlink:href="#DejaVuSans-55"/>
       <use x="222.65625" xlink:href="#DejaVuSans-53"/>
      </g>
     </g>
    </g>
    <g id="xtick_10">
     <g id="line2d_10">
      <g>
       <use style="stroke:#000000;stroke-width:0.8;" x="388.8" xlink:href="#md33fecb46e" y="252"/>
      </g>
     </g>
     <g id="text_10">
      <!-- 0.100 -->
      <g transform="translate(374.485938 266.598437)scale(0.1 -0.1)">
       <use xlink:href="#DejaVuSans-48"/>
       <use x="63.623047" xlink:href="#DejaVuSans-46"/>
       <use x="95.410156" xlink:href="#DejaVuSans-49"/>
       <use x="159.033203" xlink:href="#DejaVuSans-48"/>
       <use x="222.65625" xlink:href="#DejaVuSans-48"/>
      </g>
     </g>
    </g>
    <g id="text_11">
     <!-- FP cost/benefit -->
     <defs>
      <path d="M 9.8125 72.90625 
L 51.703125 72.90625 
L 51.703125 64.59375 
L 19.671875 64.59375 
L 19.671875 43.109375 
L 48.578125 43.109375 
L 48.578125 34.8125 
L 19.671875 34.8125 
L 19.671875 0 
L 9.8125 0 
z
" id="DejaVuSans-70"/>
      <path d="M 19.671875 64.796875 
L 19.671875 37.40625 
L 32.078125 37.40625 
Q 38.96875 37.40625 42.71875 40.96875 
Q 46.484375 44.53125 46.484375 51.125 
Q 46.484375 57.671875 42.71875 61.234375 
Q 38.96875 64.796875 32.078125 64.796875 
z
M 9.8125 72.90625 
L 32.078125 72.90625 
Q 44.34375 72.90625 50.609375 67.359375 
Q 56.890625 61.8125 56.890625 51.125 
Q 56.890625 40.328125 50.609375 34.8125 
Q 44.34375 29.296875 32.078125 29.296875 
L 19.671875 29.296875 
L 19.671875 0 
L 9.8125 0 
z
" id="DejaVuSans-80"/>
      <path id="DejaVuSans-32"/>
      <path d="M 48.78125 52.59375 
L 48.78125 44.1875 
Q 44.96875 46.296875 41.140625 47.34375 
Q 37.3125 48.390625 33.40625 48.390625 
Q 24.65625 48.390625 19.8125 42.84375 
Q 14.984375 37.3125 14.984375 27.296875 
Q 14.984375 17.28125 19.8125 11.734375 
Q 24.65625 6.203125 33.40625 6.203125 
Q 37.3125 6.203125 41.140625 7.25 
Q 44.96875 8.296875 48.78125 10.40625 
L 48.78125 2.09375 
Q 45.015625 0.34375 40.984375 -0.53125 
Q 36.96875 -1.421875 32.421875 -1.421875 
Q 20.0625 -1.421875 12.78125 6.34375 
Q 5.515625 14.109375 5.515625 27.296875 
Q 5.515625 40.671875 12.859375 48.328125 
Q 20.21875 56 33.015625 56 
Q 37.15625 56 41.109375 55.140625 
Q 45.0625 54.296875 48.78125 52.59375 
z
" id="DejaVuSans-99"/>
      <path d="M 30.609375 48.390625 
Q 23.390625 48.390625 19.1875 42.75 
Q 14.984375 37.109375 14.984375 27.296875 
Q 14.984375 17.484375 19.15625 11.84375 
Q 23.34375 6.203125 30.609375 6.203125 
Q 37.796875 6.203125 41.984375 11.859375 
Q 46.1875 17.53125 46.1875 27.296875 
Q 46.1875 37.015625 41.984375 42.703125 
Q 37.796875 48.390625 30.609375 48.390625 
z
M 30.609375 56 
Q 42.328125 56 49.015625 48.375 
Q 55.71875 40.765625 55.71875 27.296875 
Q 55.71875 13.875 49.015625 6.21875 
Q 42.328125 -1.421875 30.609375 -1.421875 
Q 18.84375 -1.421875 12.171875 6.21875 
Q 5.515625 13.875 5.515625 27.296875 
Q 5.515625 40.765625 12.171875 48.375 
Q 18.84375 56 30.609375 56 
z
" id="DejaVuSans-111"/>
      <path d="M 44.28125 53.078125 
L 44.28125 44.578125 
Q 40.484375 46.53125 36.375 47.5 
Q 32.28125 48.484375 27.875 48.484375 
Q 21.1875 48.484375 17.84375 46.4375 
Q 14.5 44.390625 14.5 40.28125 
Q 14.5 37.15625 16.890625 35.375 
Q 19.28125 33.59375 26.515625 31.984375 
L 29.59375 31.296875 
Q 39.15625 29.25 43.1875 25.515625 
Q 47.21875 21.78125 47.21875 15.09375 
Q 47.21875 7.46875 41.1875 3.015625 
Q 35.15625 -1.421875 24.609375 -1.421875 
Q 20.21875 -1.421875 15.453125 -0.5625 
Q 10.6875 0.296875 5.421875 2 
L 5.421875 11.28125 
Q 10.40625 8.6875 15.234375 7.390625 
Q 20.0625 6.109375 24.8125 6.109375 
Q 31.15625 6.109375 34.5625 8.28125 
Q 37.984375 10.453125 37.984375 14.40625 
Q 37.984375 18.0625 35.515625 20.015625 
Q 33.0625 21.96875 24.703125 23.78125 
L 21.578125 24.515625 
Q 13.234375 26.265625 9.515625 29.90625 
Q 5.8125 33.546875 5.8125 39.890625 
Q 5.8125 47.609375 11.28125 51.796875 
Q 16.75 56 26.8125 56 
Q 31.78125 56 36.171875 55.265625 
Q 40.578125 54.546875 44.28125 53.078125 
z
" id="DejaVuSans-115"/>
      <path d="M 18.3125 70.21875 
L 18.3125 54.6875 
L 36.8125 54.6875 
L 36.8125 47.703125 
L 18.3125 47.703125 
L 18.3125 18.015625 
Q 18.3125 11.328125 20.140625 9.421875 
Q 21.96875 7.515625 27.59375 7.515625 
L 36.8125 7.515625 
L 36.8125 0 
L 27.59375 0 
Q 17.1875 0 13.234375 3.875 
Q 9.28125 7.765625 9.28125 18.015625 
L 9.28125 47.703125 
L 2.6875 47.703125 
L 2.6875 54.6875 
L 9.28125 54.6875 
L 9.28125 70.21875 
z
" id="DejaVuSans-116"/>
      <path d="M 25.390625 72.90625 
L 33.6875 72.90625 
L 8.296875 -9.28125 
L 0 -9.28125 
z
" id="DejaVuSans-47"/>
      <path d="M 48.6875 27.296875 
Q 48.6875 37.203125 44.609375 42.84375 
Q 40.53125 48.484375 33.40625 48.484375 
Q 26.265625 48.484375 22.1875 42.84375 
Q 18.109375 37.203125 18.109375 27.296875 
Q 18.109375 17.390625 22.1875 11.75 
Q 26.265625 6.109375 33.40625 6.109375 
Q 40.53125 6.109375 44.609375 11.75 
Q 48.6875 17.390625 48.6875 27.296875 
z
M 18.109375 46.390625 
Q 20.953125 51.265625 25.265625 53.625 
Q 29.59375 56 35.59375 56 
Q 45.5625 56 51.78125 48.09375 
Q 58.015625 40.1875 58.015625 27.296875 
Q 58.015625 14.40625 51.78125 6.484375 
Q 45.5625 -1.421875 35.59375 -1.421875 
Q 29.59375 -1.421875 25.265625 0.953125 
Q 20.953125 3.328125 18.109375 8.203125 
L 18.109375 0 
L 9.078125 0 
L 9.078125 75.984375 
L 18.109375 75.984375 
z
" id="DejaVuSans-98"/>
      <path d="M 56.203125 29.59375 
L 56.203125 25.203125 
L 14.890625 25.203125 
Q 15.484375 15.921875 20.484375 11.0625 
Q 25.484375 6.203125 34.421875 6.203125 
Q 39.59375 6.203125 44.453125 7.46875 
Q 49.3125 8.734375 54.109375 11.28125 
L 54.109375 2.78125 
Q 49.265625 0.734375 44.1875 -0.34375 
Q 39.109375 -1.421875 33.890625 -1.421875 
Q 20.796875 -1.421875 13.15625 6.1875 
Q 5.515625 13.8125 5.515625 26.8125 
Q 5.515625 40.234375 12.765625 48.109375 
Q 20.015625 56 32.328125 56 
Q 43.359375 56 49.78125 48.890625 
Q 56.203125 41.796875 56.203125 29.59375 
z
M 47.21875 32.234375 
Q 47.125 39.59375 43.09375 43.984375 
Q 39.0625 48.390625 32.421875 48.390625 
Q 24.90625 48.390625 20.390625 44.140625 
Q 15.875 39.890625 15.1875 32.171875 
z
" id="DejaVuSans-101"/>
      <path d="M 54.890625 33.015625 
L 54.890625 0 
L 45.90625 0 
L 45.90625 32.71875 
Q 45.90625 40.484375 42.875 44.328125 
Q 39.84375 48.1875 33.796875 48.1875 
Q 26.515625 48.1875 22.3125 43.546875 
Q 18.109375 38.921875 18.109375 30.90625 
L 18.109375 0 
L 9.078125 0 
L 9.078125 54.6875 
L 18.109375 54.6875 
L 18.109375 46.1875 
Q 21.34375 51.125 25.703125 53.5625 
Q 30.078125 56 35.796875 56 
Q 45.21875 56 50.046875 50.171875 
Q 54.890625 44.34375 54.890625 33.015625 
z
" id="DejaVuSans-110"/>
      <path d="M 37.109375 75.984375 
L 37.109375 68.5 
L 28.515625 68.5 
Q 23.6875 68.5 21.796875 66.546875 
Q 19.921875 64.59375 19.921875 59.515625 
L 19.921875 54.6875 
L 34.71875 54.6875 
L 34.71875 47.703125 
L 19.921875 47.703125 
L 19.921875 0 
L 10.890625 0 
L 10.890625 47.703125 
L 2.296875 47.703125 
L 2.296875 54.6875 
L 10.890625 54.6875 
L 10.890625 58.5 
Q 10.890625 67.625 15.140625 71.796875 
Q 19.390625 75.984375 28.609375 75.984375 
z
" id="DejaVuSans-102"/>
      <path d="M 9.421875 54.6875 
L 18.40625 54.6875 
L 18.40625 0 
L 9.421875 0 
z
M 9.421875 75.984375 
L 18.40625 75.984375 
L 18.40625 64.59375 
L 9.421875 64.59375 
z
" id="DejaVuSans-105"/>
     </defs>
     <g transform="translate(184.257031 280.276563)scale(0.1 -0.1)">
      <use xlink:href="#DejaVuSans-70"/>
      <use x="57.519531" xlink:href="#DejaVuSans-80"/>
      <use x="117.822266" xlink:href="#DejaVuSans-32"/>
      <use x="149.609375" xlink:href="#DejaVuSans-99"/>
      <use x="204.589844" xlink:href="#DejaVuSans-111"/>
      <use x="265.771484" xlink:href="#DejaVuSans-115"/>
      <use x="317.871094" xlink:href="#DejaVuSans-116"/>
      <use x="357.080078" xlink:href="#DejaVuSans-47"/>
      <use x="390.771484" xlink:href="#DejaVuSans-98"/>
      <use x="454.248047" xlink:href="#DejaVuSans-101"/>
      <use x="515.771484" xlink:href="#DejaVuSans-110"/>
      <use x="579.150391" xlink:href="#DejaVuSans-101"/>
      <use x="640.673828" xlink:href="#DejaVuSans-102"/>
      <use x="675.878906" xlink:href="#DejaVuSans-105"/>
      <use x="703.662109" xlink:href="#DejaVuSans-116"/>
     </g>
    </g>
   </g>
   <g id="matplotlib.axis_2">
    <g id="ytick_1">
     <g id="line2d_11">
      <defs>
       <path d="M 0 0 
L -3.5 0 
" id="m5d82f98a36" style="stroke:#000000;stroke-width:0.8;"/>
      </defs>
      <g>
       <use style="stroke:#000000;stroke-width:0.8;" x="54" xlink:href="#m5d82f98a36" y="211.664695"/>
      </g>
     </g>
     <g id="text_12">
      <!-- 0.00 -->
      <g transform="translate(24.734375 215.463914)scale(0.1 -0.1)">
       <use xlink:href="#DejaVuSans-48"/>
       <use x="63.623047" xlink:href="#DejaVuSans-46"/>
       <use x="95.410156" xlink:href="#DejaVuSans-48"/>
       <use x="159.033203" xlink:href="#DejaVuSans-48"/>
      </g>
     </g>
    </g>
    <g id="ytick_2">
     <g id="line2d_12">
      <g>
       <use style="stroke:#000000;stroke-width:0.8;" x="54" xlink:href="#m5d82f98a36" y="170.433238"/>
      </g>
     </g>
     <g id="text_13">
      <!-- 0.02 -->
      <g transform="translate(24.734375 174.232457)scale(0.1 -0.1)">
       <use xlink:href="#DejaVuSans-48"/>
       <use x="63.623047" xlink:href="#DejaVuSans-46"/>
       <use x="95.410156" xlink:href="#DejaVuSans-48"/>
       <use x="159.033203" xlink:href="#DejaVuSans-50"/>
      </g>
     </g>
    </g>
    <g id="ytick_3">
     <g id="line2d_13">
      <g>
       <use style="stroke:#000000;stroke-width:0.8;" x="54" xlink:href="#m5d82f98a36" y="129.201782"/>
      </g>
     </g>
     <g id="text_14">
      <!-- 0.04 -->
      <defs>
       <path d="M 37.796875 64.3125 
L 12.890625 25.390625 
L 37.796875 25.390625 
z
M 35.203125 72.90625 
L 47.609375 72.90625 
L 47.609375 25.390625 
L 58.015625 25.390625 
L 58.015625 17.1875 
L 47.609375 17.1875 
L 47.609375 0 
L 37.796875 0 
L 37.796875 17.1875 
L 4.890625 17.1875 
L 4.890625 26.703125 
z
" id="DejaVuSans-52"/>
      </defs>
      <g transform="translate(24.734375 133.001)scale(0.1 -0.1)">
       <use xlink:href="#DejaVuSans-48"/>
       <use x="63.623047" xlink:href="#DejaVuSans-46"/>
       <use x="95.410156" xlink:href="#DejaVuSans-48"/>
       <use x="159.033203" xlink:href="#DejaVuSans-52"/>
      </g>
     </g>
    </g>
    <g id="ytick_4">
     <g id="line2d_14">
      <g>
       <use style="stroke:#000000;stroke-width:0.8;" x="54" xlink:href="#m5d82f98a36" y="87.970325"/>
      </g>
     </g>
     <g id="text_15">
      <!-- 0.06 -->
      <defs>
       <path d="M 33.015625 40.375 
Q 26.375 40.375 22.484375 35.828125 
Q 18.609375 31.296875 18.609375 23.390625 
Q 18.609375 15.53125 22.484375 10.953125 
Q 26.375 6.390625 33.015625 6.390625 
Q 39.65625 6.390625 43.53125 10.953125 
Q 47.40625 15.53125 47.40625 23.390625 
Q 47.40625 31.296875 43.53125 35.828125 
Q 39.65625 40.375 33.015625 40.375 
z
M 52.59375 71.296875 
L 52.59375 62.3125 
Q 48.875 64.0625 45.09375 64.984375 
Q 41.3125 65.921875 37.59375 65.921875 
Q 27.828125 65.921875 22.671875 59.328125 
Q 17.53125 52.734375 16.796875 39.40625 
Q 19.671875 43.65625 24.015625 45.921875 
Q 28.375 48.1875 33.59375 48.1875 
Q 44.578125 48.1875 50.953125 41.515625 
Q 57.328125 34.859375 57.328125 23.390625 
Q 57.328125 12.15625 50.6875 5.359375 
Q 44.046875 -1.421875 33.015625 -1.421875 
Q 20.359375 -1.421875 13.671875 8.265625 
Q 6.984375 17.96875 6.984375 36.375 
Q 6.984375 53.65625 15.1875 63.9375 
Q 23.390625 74.21875 37.203125 74.21875 
Q 40.921875 74.21875 44.703125 73.484375 
Q 48.484375 72.75 52.59375 71.296875 
z
" id="DejaVuSans-54"/>
      </defs>
      <g transform="translate(24.734375 91.769544)scale(0.1 -0.1)">
       <use xlink:href="#DejaVuSans-48"/>
       <use x="63.623047" xlink:href="#DejaVuSans-46"/>
       <use x="95.410156" xlink:href="#DejaVuSans-48"/>
       <use x="159.033203" xlink:href="#DejaVuSans-54"/>
      </g>
     </g>
    </g>
    <g id="ytick_5">
     <g id="line2d_15">
      <g>
       <use style="stroke:#000000;stroke-width:0.8;" x="54" xlink:href="#m5d82f98a36" y="46.738868"/>
      </g>
     </g>
     <g id="text_16">
      <!-- 0.08 -->
      <defs>
       <path d="M 31.78125 34.625 
Q 24.75 34.625 20.71875 30.859375 
Q 16.703125 27.09375 16.703125 20.515625 
Q 16.703125 13.921875 20.71875 10.15625 
Q 24.75 6.390625 31.78125 6.390625 
Q 38.8125 6.390625 42.859375 10.171875 
Q 46.921875 13.96875 46.921875 20.515625 
Q 46.921875 27.09375 42.890625 30.859375 
Q 38.875 34.625 31.78125 34.625 
z
M 21.921875 38.8125 
Q 15.578125 40.375 12.03125 44.71875 
Q 8.5 49.078125 8.5 55.328125 
Q 8.5 64.0625 14.71875 69.140625 
Q 20.953125 74.21875 31.78125 74.21875 
Q 42.671875 74.21875 48.875 69.140625 
Q 55.078125 64.0625 55.078125 55.328125 
Q 55.078125 49.078125 51.53125 44.71875 
Q 48 40.375 41.703125 38.8125 
Q 48.828125 37.15625 52.796875 32.3125 
Q 56.78125 27.484375 56.78125 20.515625 
Q 56.78125 9.90625 50.3125 4.234375 
Q 43.84375 -1.421875 31.78125 -1.421875 
Q 19.734375 -1.421875 13.25 4.234375 
Q 6.78125 9.90625 6.78125 20.515625 
Q 6.78125 27.484375 10.78125 32.3125 
Q 14.796875 37.15625 21.921875 38.8125 
z
M 18.3125 54.390625 
Q 18.3125 48.734375 21.84375 45.5625 
Q 25.390625 42.390625 31.78125 42.390625 
Q 38.140625 42.390625 41.71875 45.5625 
Q 45.3125 48.734375 45.3125 54.390625 
Q 45.3125 60.0625 41.71875 63.234375 
Q 38.140625 66.40625 31.78125 66.40625 
Q 25.390625 66.40625 21.84375 63.234375 
Q 18.3125 60.0625 18.3125 54.390625 
z
" id="DejaVuSans-56"/>
      </defs>
      <g transform="translate(24.734375 50.538087)scale(0.1 -0.1)">
       <use xlink:href="#DejaVuSans-48"/>
       <use x="63.623047" xlink:href="#DejaVuSans-46"/>
       <use x="95.410156" xlink:href="#DejaVuSans-48"/>
       <use x="159.033203" xlink:href="#DejaVuSans-56"/>
      </g>
     </g>
    </g>
    <g id="text_17">
     <!-- Max average profit margin -->
     <defs>
      <path d="M 9.8125 72.90625 
L 24.515625 72.90625 
L 43.109375 23.296875 
L 61.8125 72.90625 
L 76.515625 72.90625 
L 76.515625 0 
L 66.890625 0 
L 66.890625 64.015625 
L 48.09375 14.015625 
L 38.1875 14.015625 
L 19.390625 64.015625 
L 19.390625 0 
L 9.8125 0 
z
" id="DejaVuSans-77"/>
      <path d="M 34.28125 27.484375 
Q 23.390625 27.484375 19.1875 25 
Q 14.984375 22.515625 14.984375 16.5 
Q 14.984375 11.71875 18.140625 8.90625 
Q 21.296875 6.109375 26.703125 6.109375 
Q 34.1875 6.109375 38.703125 11.40625 
Q 43.21875 16.703125 43.21875 25.484375 
L 43.21875 27.484375 
z
M 52.203125 31.203125 
L 52.203125 0 
L 43.21875 0 
L 43.21875 8.296875 
Q 40.140625 3.328125 35.546875 0.953125 
Q 30.953125 -1.421875 24.3125 -1.421875 
Q 15.921875 -1.421875 10.953125 3.296875 
Q 6 8.015625 6 15.921875 
Q 6 25.140625 12.171875 29.828125 
Q 18.359375 34.515625 30.609375 34.515625 
L 43.21875 34.515625 
L 43.21875 35.40625 
Q 43.21875 41.609375 39.140625 45 
Q 35.0625 48.390625 27.6875 48.390625 
Q 23 48.390625 18.546875 47.265625 
Q 14.109375 46.140625 10.015625 43.890625 
L 10.015625 52.203125 
Q 14.9375 54.109375 19.578125 55.046875 
Q 24.21875 56 28.609375 56 
Q 40.484375 56 46.34375 49.84375 
Q 52.203125 43.703125 52.203125 31.203125 
z
" id="DejaVuSans-97"/>
      <path d="M 54.890625 54.6875 
L 35.109375 28.078125 
L 55.90625 0 
L 45.3125 0 
L 29.390625 21.484375 
L 13.484375 0 
L 2.875 0 
L 24.125 28.609375 
L 4.6875 54.6875 
L 15.28125 54.6875 
L 29.78125 35.203125 
L 44.28125 54.6875 
z
" id="DejaVuSans-120"/>
      <path d="M 2.984375 54.6875 
L 12.5 54.6875 
L 29.59375 8.796875 
L 46.6875 54.6875 
L 56.203125 54.6875 
L 35.6875 0 
L 23.484375 0 
z
" id="DejaVuSans-118"/>
      <path d="M 41.109375 46.296875 
Q 39.59375 47.171875 37.8125 47.578125 
Q 36.03125 48 33.890625 48 
Q 26.265625 48 22.1875 43.046875 
Q 18.109375 38.09375 18.109375 28.8125 
L 18.109375 0 
L 9.078125 0 
L 9.078125 54.6875 
L 18.109375 54.6875 
L 18.109375 46.1875 
Q 20.953125 51.171875 25.484375 53.578125 
Q 30.03125 56 36.53125 56 
Q 37.453125 56 38.578125 55.875 
Q 39.703125 55.765625 41.0625 55.515625 
z
" id="DejaVuSans-114"/>
      <path d="M 45.40625 27.984375 
Q 45.40625 37.75 41.375 43.109375 
Q 37.359375 48.484375 30.078125 48.484375 
Q 22.859375 48.484375 18.828125 43.109375 
Q 14.796875 37.75 14.796875 27.984375 
Q 14.796875 18.265625 18.828125 12.890625 
Q 22.859375 7.515625 30.078125 7.515625 
Q 37.359375 7.515625 41.375 12.890625 
Q 45.40625 18.265625 45.40625 27.984375 
z
M 54.390625 6.78125 
Q 54.390625 -7.171875 48.1875 -13.984375 
Q 42 -20.796875 29.203125 -20.796875 
Q 24.46875 -20.796875 20.265625 -20.09375 
Q 16.0625 -19.390625 12.109375 -17.921875 
L 12.109375 -9.1875 
Q 16.0625 -11.328125 19.921875 -12.34375 
Q 23.78125 -13.375 27.78125 -13.375 
Q 36.625 -13.375 41.015625 -8.765625 
Q 45.40625 -4.15625 45.40625 5.171875 
L 45.40625 9.625 
Q 42.625 4.78125 38.28125 2.390625 
Q 33.9375 0 27.875 0 
Q 17.828125 0 11.671875 7.65625 
Q 5.515625 15.328125 5.515625 27.984375 
Q 5.515625 40.671875 11.671875 48.328125 
Q 17.828125 56 27.875 56 
Q 33.9375 56 38.28125 53.609375 
Q 42.625 51.21875 45.40625 46.390625 
L 45.40625 54.6875 
L 54.390625 54.6875 
z
" id="DejaVuSans-103"/>
      <path d="M 18.109375 8.203125 
L 18.109375 -20.796875 
L 9.078125 -20.796875 
L 9.078125 54.6875 
L 18.109375 54.6875 
L 18.109375 46.390625 
Q 20.953125 51.265625 25.265625 53.625 
Q 29.59375 56 35.59375 56 
Q 45.5625 56 51.78125 48.09375 
Q 58.015625 40.1875 58.015625 27.296875 
Q 58.015625 14.40625 51.78125 6.484375 
Q 45.5625 -1.421875 35.59375 -1.421875 
Q 29.59375 -1.421875 25.265625 0.953125 
Q 20.953125 3.328125 18.109375 8.203125 
z
M 48.6875 27.296875 
Q 48.6875 37.203125 44.609375 42.84375 
Q 40.53125 48.484375 33.40625 48.484375 
Q 26.265625 48.484375 22.1875 42.84375 
Q 18.109375 37.203125 18.109375 27.296875 
Q 18.109375 17.390625 22.1875 11.75 
Q 26.265625 6.109375 33.40625 6.109375 
Q 40.53125 6.109375 44.609375 11.75 
Q 48.6875 17.390625 48.6875 27.296875 
z
" id="DejaVuSans-112"/>
      <path d="M 52 44.1875 
Q 55.375 50.25 60.0625 53.125 
Q 64.75 56 71.09375 56 
Q 79.640625 56 84.28125 50.015625 
Q 88.921875 44.046875 88.921875 33.015625 
L 88.921875 0 
L 79.890625 0 
L 79.890625 32.71875 
Q 79.890625 40.578125 77.09375 44.375 
Q 74.3125 48.1875 68.609375 48.1875 
Q 61.625 48.1875 57.5625 43.546875 
Q 53.515625 38.921875 53.515625 30.90625 
L 53.515625 0 
L 44.484375 0 
L 44.484375 32.71875 
Q 44.484375 40.625 41.703125 44.40625 
Q 38.921875 48.1875 33.109375 48.1875 
Q 26.21875 48.1875 22.15625 43.53125 
Q 18.109375 38.875 18.109375 30.90625 
L 18.109375 0 
L 9.078125 0 
L 9.078125 54.6875 
L 18.109375 54.6875 
L 18.109375 46.1875 
Q 21.1875 51.21875 25.484375 53.609375 
Q 29.78125 56 35.6875 56 
Q 41.65625 56 45.828125 52.96875 
Q 50 49.953125 52 44.1875 
z
" id="DejaVuSans-109"/>
     </defs>
     <g transform="translate(18.654687 209.972969)rotate(-90)scale(0.1 -0.1)">
      <use xlink:href="#DejaVuSans-77"/>
      <use x="86.279297" xlink:href="#DejaVuSans-97"/>
      <use x="147.558594" xlink:href="#DejaVuSans-120"/>
      <use x="206.738281" xlink:href="#DejaVuSans-32"/>
      <use x="238.525391" xlink:href="#DejaVuSans-97"/>
      <use x="299.804688" xlink:href="#DejaVuSans-118"/>
      <use x="358.984375" xlink:href="#DejaVuSans-101"/>
      <use x="420.507812" xlink:href="#DejaVuSans-114"/>
      <use x="461.621094" xlink:href="#DejaVuSans-97"/>
      <use x="522.900391" xlink:href="#DejaVuSans-103"/>
      <use x="586.376953" xlink:href="#DejaVuSans-101"/>
      <use x="647.900391" xlink:href="#DejaVuSans-32"/>
      <use x="679.6875" xlink:href="#DejaVuSans-112"/>
      <use x="743.164062" xlink:href="#DejaVuSans-114"/>
      <use x="784.246094" xlink:href="#DejaVuSans-111"/>
      <use x="845.427734" xlink:href="#DejaVuSans-102"/>
      <use x="880.632812" xlink:href="#DejaVuSans-105"/>
      <use x="908.416016" xlink:href="#DejaVuSans-116"/>
      <use x="947.625" xlink:href="#DejaVuSans-32"/>
      <use x="979.412109" xlink:href="#DejaVuSans-109"/>
      <use x="1076.824219" xlink:href="#DejaVuSans-97"/>
      <use x="1138.103516" xlink:href="#DejaVuSans-114"/>
      <use x="1179.201172" xlink:href="#DejaVuSans-103"/>
      <use x="1242.677734" xlink:href="#DejaVuSans-105"/>
      <use x="1270.460938" xlink:href="#DejaVuSans-110"/>
     </g>
    </g>
   </g>
   <g id="line2d_16">
    <path clip-path="url(#pa00c288489)" d="M 240 252 
L 240 34.56 
" style="fill:none;stroke:#bfbfbf;stroke-dasharray:3.7,1.6;stroke-dashoffset:0;"/>
   </g>
   <g id="line2d_17">
    <path clip-path="url(#pa00c288489)" d="M 91.2 252 
L 91.2 34.56 
" style="fill:none;stroke:#bfbfbf;stroke-dasharray:3.7,1.6;stroke-dashoffset:0;"/>
   </g>
   <g id="patch_3">
    <path d="M 54 252 
L 54 34.56 
" style="fill:none;stroke:#000000;stroke-linecap:square;stroke-linejoin:miter;stroke-width:0.8;"/>
   </g>
   <g id="patch_4">
    <path d="M 388.8 252 
L 388.8 34.56 
" style="fill:none;stroke:#000000;stroke-linecap:square;stroke-linejoin:miter;stroke-width:0.8;"/>
   </g>
   <g id="patch_5">
    <path d="M 54 252 
L 388.8 252 
" style="fill:none;stroke:#000000;stroke-linecap:square;stroke-linejoin:miter;stroke-width:0.8;"/>
   </g>
   <g id="patch_6">
    <path d="M 54 34.56 
L 388.8 34.56 
" style="fill:none;stroke:#000000;stroke-linecap:square;stroke-linejoin:miter;stroke-width:0.8;"/>
   </g>
   <g id="text_18">
    <g id="patch_7">
     <path d="M 363.772768 240.119486 
L 258.964844 240.119486 
L 258.964844 224.441361 
L 363.772768 224.441361 
L 363.772768 220.52183 
L 375.531362 232.280423 
L 363.772768 244.039017 
L 363.772768 240.119486 
z
" style="fill:#ffffff;stroke:#000000;stroke-linejoin:miter;"/>
    </g>
    <!-- Stock for all sessions -->
    <defs>
     <path d="M 53.515625 70.515625 
L 53.515625 60.890625 
Q 47.90625 63.578125 42.921875 64.890625 
Q 37.9375 66.21875 33.296875 66.21875 
Q 25.25 66.21875 20.875 63.09375 
Q 16.5 59.96875 16.5 54.203125 
Q 16.5 49.359375 19.40625 46.890625 
Q 22.3125 44.4375 30.421875 42.921875 
L 36.375 41.703125 
Q 47.40625 39.59375 52.65625 34.296875 
Q 57.90625 29 57.90625 20.125 
Q 57.90625 9.515625 50.796875 4.046875 
Q 43.703125 -1.421875 29.984375 -1.421875 
Q 24.8125 -1.421875 18.96875 -0.25 
Q 13.140625 0.921875 6.890625 3.21875 
L 6.890625 13.375 
Q 12.890625 10.015625 18.65625 8.296875 
Q 24.421875 6.59375 29.984375 6.59375 
Q 38.421875 6.59375 43.015625 9.90625 
Q 47.609375 13.234375 47.609375 19.390625 
Q 47.609375 24.75 44.3125 27.78125 
Q 41.015625 30.8125 33.5 32.328125 
L 27.484375 33.5 
Q 16.453125 35.6875 11.515625 40.375 
Q 6.59375 45.0625 6.59375 53.421875 
Q 6.59375 63.09375 13.40625 68.65625 
Q 20.21875 74.21875 32.171875 74.21875 
Q 37.3125 74.21875 42.625 73.28125 
Q 47.953125 72.359375 53.515625 70.515625 
z
" id="DejaVuSans-83"/>
     <path d="M 9.078125 75.984375 
L 18.109375 75.984375 
L 18.109375 31.109375 
L 44.921875 54.6875 
L 56.390625 54.6875 
L 27.390625 29.109375 
L 57.625 0 
L 45.90625 0 
L 18.109375 26.703125 
L 18.109375 0 
L 9.078125 0 
z
" id="DejaVuSans-107"/>
     <path d="M 9.421875 75.984375 
L 18.40625 75.984375 
L 18.40625 0 
L 9.421875 0 
z
" id="DejaVuSans-108"/>
    </defs>
    <g transform="translate(261.964844 235.039798)scale(0.1 -0.1)">
     <use xlink:href="#DejaVuSans-83"/>
     <use x="63.476562" xlink:href="#DejaVuSans-116"/>
     <use x="102.685547" xlink:href="#DejaVuSans-111"/>
     <use x="163.867188" xlink:href="#DejaVuSans-99"/>
     <use x="218.847656" xlink:href="#DejaVuSans-107"/>
     <use x="276.757812" xlink:href="#DejaVuSans-32"/>
     <use x="308.544922" xlink:href="#DejaVuSans-102"/>
     <use x="343.75" xlink:href="#DejaVuSans-111"/>
     <use x="404.931641" xlink:href="#DejaVuSans-114"/>
     <use x="446.044922" xlink:href="#DejaVuSans-32"/>
     <use x="477.832031" xlink:href="#DejaVuSans-97"/>
     <use x="539.111328" xlink:href="#DejaVuSans-108"/>
     <use x="566.894531" xlink:href="#DejaVuSans-108"/>
     <use x="594.677734" xlink:href="#DejaVuSans-32"/>
     <use x="626.464844" xlink:href="#DejaVuSans-115"/>
     <use x="678.564453" xlink:href="#DejaVuSans-101"/>
     <use x="740.087891" xlink:href="#DejaVuSans-115"/>
     <use x="792.1875" xlink:href="#DejaVuSans-115"/>
     <use x="844.287109" xlink:href="#DejaVuSans-105"/>
     <use x="872.070312" xlink:href="#DejaVuSans-111"/>
     <use x="933.251953" xlink:href="#DejaVuSans-110"/>
     <use x="996.630859" xlink:href="#DejaVuSans-115"/>
    </g>
   </g>
   <g id="text_19">
    <g id="patch_8">
     <path d="M 110.499888 240.119486 
L 220.7625 240.119486 
L 220.7625 244.039017 
L 232.521094 232.280423 
L 220.7625 220.52183 
L 220.7625 224.441361 
L 110.499888 224.441361 
L 110.499888 220.52183 
L 98.741295 232.280423 
L 110.499888 244.039017 
L 110.499888 240.119486 
z
" style="fill:#ffffff;stroke:#000000;stroke-linejoin:miter;"/>
    </g>
    <!-- Optimize stock with ML -->
    <defs>
     <path d="M 39.40625 66.21875 
Q 28.65625 66.21875 22.328125 58.203125 
Q 16.015625 50.203125 16.015625 36.375 
Q 16.015625 22.609375 22.328125 14.59375 
Q 28.65625 6.59375 39.40625 6.59375 
Q 50.140625 6.59375 56.421875 14.59375 
Q 62.703125 22.609375 62.703125 36.375 
Q 62.703125 50.203125 56.421875 58.203125 
Q 50.140625 66.21875 39.40625 66.21875 
z
M 39.40625 74.21875 
Q 54.734375 74.21875 63.90625 63.9375 
Q 73.09375 53.65625 73.09375 36.375 
Q 73.09375 19.140625 63.90625 8.859375 
Q 54.734375 -1.421875 39.40625 -1.421875 
Q 24.03125 -1.421875 14.8125 8.828125 
Q 5.609375 19.09375 5.609375 36.375 
Q 5.609375 53.65625 14.8125 63.9375 
Q 24.03125 74.21875 39.40625 74.21875 
z
" id="DejaVuSans-79"/>
     <path d="M 5.515625 54.6875 
L 48.1875 54.6875 
L 48.1875 46.484375 
L 14.40625 7.171875 
L 48.1875 7.171875 
L 48.1875 0 
L 4.296875 0 
L 4.296875 8.203125 
L 38.09375 47.515625 
L 5.515625 47.515625 
z
" id="DejaVuSans-122"/>
     <path d="M 4.203125 54.6875 
L 13.1875 54.6875 
L 24.421875 12.015625 
L 35.59375 54.6875 
L 46.1875 54.6875 
L 57.421875 12.015625 
L 68.609375 54.6875 
L 77.59375 54.6875 
L 63.28125 0 
L 52.6875 0 
L 40.921875 44.828125 
L 29.109375 0 
L 18.5 0 
z
" id="DejaVuSans-119"/>
     <path d="M 54.890625 33.015625 
L 54.890625 0 
L 45.90625 0 
L 45.90625 32.71875 
Q 45.90625 40.484375 42.875 44.328125 
Q 39.84375 48.1875 33.796875 48.1875 
Q 26.515625 48.1875 22.3125 43.546875 
Q 18.109375 38.921875 18.109375 30.90625 
L 18.109375 0 
L 9.078125 0 
L 9.078125 75.984375 
L 18.109375 75.984375 
L 18.109375 46.1875 
Q 21.34375 51.125 25.703125 53.5625 
Q 30.078125 56 35.796875 56 
Q 45.21875 56 50.046875 50.171875 
Q 54.890625 44.34375 54.890625 33.015625 
z
" id="DejaVuSans-104"/>
     <path d="M 9.8125 72.90625 
L 19.671875 72.90625 
L 19.671875 8.296875 
L 55.171875 8.296875 
L 55.171875 0 
L 9.8125 0 
z
" id="DejaVuSans-76"/>
    </defs>
    <g transform="translate(107.4375 235.039798)scale(0.1 -0.1)">
     <use xlink:href="#DejaVuSans-79"/>
     <use x="78.710938" xlink:href="#DejaVuSans-112"/>
     <use x="142.1875" xlink:href="#DejaVuSans-116"/>
     <use x="181.396484" xlink:href="#DejaVuSans-105"/>
     <use x="209.179688" xlink:href="#DejaVuSans-109"/>
     <use x="306.591797" xlink:href="#DejaVuSans-105"/>
     <use x="334.375" xlink:href="#DejaVuSans-122"/>
     <use x="386.865234" xlink:href="#DejaVuSans-101"/>
     <use x="448.388672" xlink:href="#DejaVuSans-32"/>
     <use x="480.175781" xlink:href="#DejaVuSans-115"/>
     <use x="532.275391" xlink:href="#DejaVuSans-116"/>
     <use x="571.484375" xlink:href="#DejaVuSans-111"/>
     <use x="632.666016" xlink:href="#DejaVuSans-99"/>
     <use x="687.646484" xlink:href="#DejaVuSans-107"/>
     <use x="745.556641" xlink:href="#DejaVuSans-32"/>
     <use x="777.34375" xlink:href="#DejaVuSans-119"/>
     <use x="859.130859" xlink:href="#DejaVuSans-105"/>
     <use x="886.914062" xlink:href="#DejaVuSans-116"/>
     <use x="926.123047" xlink:href="#DejaVuSans-104"/>
     <use x="989.501953" xlink:href="#DejaVuSans-32"/>
     <use x="1021.289062" xlink:href="#DejaVuSans-77"/>
     <use x="1107.568359" xlink:href="#DejaVuSans-76"/>
    </g>
   </g>
   <g id="text_20">
    <!-- Stocking strategies for FP cost/benefit values -->
    <defs>
     <path d="M 8.5 21.578125 
L 8.5 54.6875 
L 17.484375 54.6875 
L 17.484375 21.921875 
Q 17.484375 14.15625 20.5 10.265625 
Q 23.53125 6.390625 29.59375 6.390625 
Q 36.859375 6.390625 41.078125 11.03125 
Q 45.3125 15.671875 45.3125 23.6875 
L 45.3125 54.6875 
L 54.296875 54.6875 
L 54.296875 0 
L 45.3125 0 
L 45.3125 8.40625 
Q 42.046875 3.421875 37.71875 1 
Q 33.40625 -1.421875 27.6875 -1.421875 
Q 18.265625 -1.421875 13.375 4.4375 
Q 8.5 10.296875 8.5 21.578125 
z
M 31.109375 56 
z
" id="DejaVuSans-117"/>
    </defs>
    <g transform="translate(85.592813 28.56)scale(0.12 -0.12)">
     <use xlink:href="#DejaVuSans-83"/>
     <use x="63.476562" xlink:href="#DejaVuSans-116"/>
     <use x="102.685547" xlink:href="#DejaVuSans-111"/>
     <use x="163.867188" xlink:href="#DejaVuSans-99"/>
     <use x="218.847656" xlink:href="#DejaVuSans-107"/>
     <use x="276.757812" xlink:href="#DejaVuSans-105"/>
     <use x="304.541016" xlink:href="#DejaVuSans-110"/>
     <use x="367.919922" xlink:href="#DejaVuSans-103"/>
     <use x="431.396484" xlink:href="#DejaVuSans-32"/>
     <use x="463.183594" xlink:href="#DejaVuSans-115"/>
     <use x="515.283203" xlink:href="#DejaVuSans-116"/>
     <use x="554.492188" xlink:href="#DejaVuSans-114"/>
     <use x="595.605469" xlink:href="#DejaVuSans-97"/>
     <use x="656.884766" xlink:href="#DejaVuSans-116"/>
     <use x="696.09375" xlink:href="#DejaVuSans-101"/>
     <use x="757.617188" xlink:href="#DejaVuSans-103"/>
     <use x="821.09375" xlink:href="#DejaVuSans-105"/>
     <use x="848.876953" xlink:href="#DejaVuSans-101"/>
     <use x="910.400391" xlink:href="#DejaVuSans-115"/>
     <use x="962.5" xlink:href="#DejaVuSans-32"/>
     <use x="994.287109" xlink:href="#DejaVuSans-102"/>
     <use x="1029.492188" xlink:href="#DejaVuSans-111"/>
     <use x="1090.673828" xlink:href="#DejaVuSans-114"/>
     <use x="1131.787109" xlink:href="#DejaVuSans-32"/>
     <use x="1163.574219" xlink:href="#DejaVuSans-70"/>
     <use x="1221.09375" xlink:href="#DejaVuSans-80"/>
     <use x="1281.396484" xlink:href="#DejaVuSans-32"/>
     <use x="1313.183594" xlink:href="#DejaVuSans-99"/>
     <use x="1368.164062" xlink:href="#DejaVuSans-111"/>
     <use x="1429.345703" xlink:href="#DejaVuSans-115"/>
     <use x="1481.445312" xlink:href="#DejaVuSans-116"/>
     <use x="1520.654297" xlink:href="#DejaVuSans-47"/>
     <use x="1554.345703" xlink:href="#DejaVuSans-98"/>
     <use x="1617.822266" xlink:href="#DejaVuSans-101"/>
     <use x="1679.345703" xlink:href="#DejaVuSans-110"/>
     <use x="1742.724609" xlink:href="#DejaVuSans-101"/>
     <use x="1804.248047" xlink:href="#DejaVuSans-102"/>
     <use x="1839.453125" xlink:href="#DejaVuSans-105"/>
     <use x="1867.236328" xlink:href="#DejaVuSans-116"/>
     <use x="1906.445312" xlink:href="#DejaVuSans-32"/>
     <use x="1938.232422" xlink:href="#DejaVuSans-118"/>
     <use x="1997.412109" xlink:href="#DejaVuSans-97"/>
     <use x="2058.691406" xlink:href="#DejaVuSans-108"/>
     <use x="2086.474609" xlink:href="#DejaVuSans-117"/>
     <use x="2149.853516" xlink:href="#DejaVuSans-101"/>
     <use x="2211.376953" xlink:href="#DejaVuSans-115"/>
    </g>
   </g>
   <g id="legend_1">
    <g id="patch_9">
     <path d="M 61 115.950625 
L 142.498437 115.950625 
Q 144.498437 115.950625 144.498437 113.950625 
L 144.498437 41.56 
Q 144.498437 39.56 142.498437 39.56 
L 61 39.56 
Q 59 39.56 59 41.56 
L 59 113.950625 
Q 59 115.950625 61 115.950625 
z
" style="fill:#ffffff;opacity:0.8;stroke:#cccccc;stroke-linejoin:miter;"/>
    </g>
    <g id="PathCollection_7">
     <defs>
      <path id="mb37d61bf71" style="stroke:#ffffff;stroke-width:1.5;"/>
     </defs>
     <g>
      <use style="fill:#ffffff;stroke:#ffffff;stroke-width:1.5;" x="73" xlink:href="#mb37d61bf71" y="48.533437"/>
     </g>
    </g>
    <g id="text_21">
     <!-- Threshold -->
     <defs>
      <path d="M -0.296875 72.90625 
L 61.375 72.90625 
L 61.375 64.59375 
L 35.5 64.59375 
L 35.5 0 
L 25.59375 0 
L 25.59375 64.59375 
L -0.296875 64.59375 
z
" id="DejaVuSans-84"/>
      <path d="M 45.40625 46.390625 
L 45.40625 75.984375 
L 54.390625 75.984375 
L 54.390625 0 
L 45.40625 0 
L 45.40625 8.203125 
Q 42.578125 3.328125 38.25 0.953125 
Q 33.9375 -1.421875 27.875 -1.421875 
Q 17.96875 -1.421875 11.734375 6.484375 
Q 5.515625 14.40625 5.515625 27.296875 
Q 5.515625 40.1875 11.734375 48.09375 
Q 17.96875 56 27.875 56 
Q 33.9375 56 38.25 53.625 
Q 42.578125 51.265625 45.40625 46.390625 
z
M 14.796875 27.296875 
Q 14.796875 17.390625 18.875 11.75 
Q 22.953125 6.109375 30.078125 6.109375 
Q 37.203125 6.109375 41.296875 11.75 
Q 45.40625 17.390625 45.40625 27.296875 
Q 45.40625 37.203125 41.296875 42.84375 
Q 37.203125 48.484375 30.078125 48.484375 
Q 22.953125 48.484375 18.875 42.84375 
Q 14.796875 37.203125 14.796875 27.296875 
z
" id="DejaVuSans-100"/>
     </defs>
     <g transform="translate(91 51.158437)scale(0.1 -0.1)">
      <use xlink:href="#DejaVuSans-84"/>
      <use x="61.083984" xlink:href="#DejaVuSans-104"/>
      <use x="124.462891" xlink:href="#DejaVuSans-114"/>
      <use x="165.544922" xlink:href="#DejaVuSans-101"/>
      <use x="227.068359" xlink:href="#DejaVuSans-115"/>
      <use x="279.167969" xlink:href="#DejaVuSans-104"/>
      <use x="342.546875" xlink:href="#DejaVuSans-111"/>
      <use x="403.728516" xlink:href="#DejaVuSans-108"/>
      <use x="431.511719" xlink:href="#DejaVuSans-100"/>
     </g>
    </g>
    <g id="PathCollection_8">
     <defs>
      <path d="M 0 3 
C 0.795609 3 1.55874 2.683901 2.12132 2.12132 
C 2.683901 1.55874 3 0.795609 3 0 
C 3 -0.795609 2.683901 -1.55874 2.12132 -2.12132 
C 1.55874 -2.683901 0.795609 -3 0 -3 
C -0.795609 -3 -1.55874 -2.683901 -2.12132 -2.12132 
C -2.683901 -1.55874 -3 -0.795609 -3 0 
C -3 0.795609 -2.683901 1.55874 -2.12132 2.12132 
C -1.55874 2.683901 -0.795609 3 0 3 
z
" id="m8e6384e184" style="stroke:#edd1cb;"/>
     </defs>
     <g>
      <use style="fill:#edd1cb;stroke:#edd1cb;" x="73" xlink:href="#m8e6384e184" y="63.211562"/>
     </g>
    </g>
    <g id="text_22">
     <!-- 0.00 -->
     <g transform="translate(91 65.836562)scale(0.1 -0.1)">
      <use xlink:href="#DejaVuSans-48"/>
      <use x="63.623047" xlink:href="#DejaVuSans-46"/>
      <use x="95.410156" xlink:href="#DejaVuSans-48"/>
      <use x="159.033203" xlink:href="#DejaVuSans-48"/>
     </g>
    </g>
    <g id="PathCollection_9">
     <defs>
      <path d="M 0 3 
C 0.795609 3 1.55874 2.683901 2.12132 2.12132 
C 2.683901 1.55874 3 0.795609 3 0 
C 3 -0.795609 2.683901 -1.55874 2.12132 -2.12132 
C 1.55874 -2.683901 0.795609 -3 0 -3 
C -0.795609 -3 -1.55874 -2.683901 -2.12132 -2.12132 
C -2.683901 -1.55874 -3 -0.795609 -3 0 
C -3 0.795609 -2.683901 1.55874 -2.12132 2.12132 
C -1.55874 2.683901 -0.795609 3 0 3 
z
" id="m9b700453cb" style="stroke:#b97596;"/>
     </defs>
     <g>
      <use style="fill:#b97596;stroke:#b97596;" x="73" xlink:href="#m9b700453cb" y="77.889687"/>
     </g>
    </g>
    <g id="text_23">
     <!-- 0.15 -->
     <g transform="translate(91 80.514687)scale(0.1 -0.1)">
      <use xlink:href="#DejaVuSans-48"/>
      <use x="63.623047" xlink:href="#DejaVuSans-46"/>
      <use x="95.410156" xlink:href="#DejaVuSans-49"/>
      <use x="159.033203" xlink:href="#DejaVuSans-53"/>
     </g>
    </g>
    <g id="PathCollection_10">
     <defs>
      <path d="M 0 3 
C 0.795609 3 1.55874 2.683901 2.12132 2.12132 
C 2.683901 1.55874 3 0.795609 3 0 
C 3 -0.795609 2.683901 -1.55874 2.12132 -2.12132 
C 1.55874 -2.683901 0.795609 -3 0 -3 
C -0.795609 -3 -1.55874 -2.683901 -2.12132 -2.12132 
C -2.683901 -1.55874 -3 -0.795609 -3 0 
C -3 0.795609 -2.683901 1.55874 -2.12132 2.12132 
C -1.55874 2.683901 -0.795609 3 0 3 
z
" id="m7244660c17" style="stroke:#4c2e5a;"/>
     </defs>
     <g>
      <use style="fill:#4c2e5a;stroke:#4c2e5a;" x="73" xlink:href="#m7244660c17" y="92.567813"/>
     </g>
    </g>
    <g id="text_24">
     <!-- 0.30 -->
     <defs>
      <path d="M 40.578125 39.3125 
Q 47.65625 37.796875 51.625 33 
Q 55.609375 28.21875 55.609375 21.1875 
Q 55.609375 10.40625 48.1875 4.484375 
Q 40.765625 -1.421875 27.09375 -1.421875 
Q 22.515625 -1.421875 17.65625 -0.515625 
Q 12.796875 0.390625 7.625 2.203125 
L 7.625 11.71875 
Q 11.71875 9.328125 16.59375 8.109375 
Q 21.484375 6.890625 26.8125 6.890625 
Q 36.078125 6.890625 40.9375 10.546875 
Q 45.796875 14.203125 45.796875 21.1875 
Q 45.796875 27.640625 41.28125 31.265625 
Q 36.765625 34.90625 28.71875 34.90625 
L 20.21875 34.90625 
L 20.21875 43.015625 
L 29.109375 43.015625 
Q 36.375 43.015625 40.234375 45.921875 
Q 44.09375 48.828125 44.09375 54.296875 
Q 44.09375 59.90625 40.109375 62.90625 
Q 36.140625 65.921875 28.71875 65.921875 
Q 24.65625 65.921875 20.015625 65.03125 
Q 15.375 64.15625 9.8125 62.3125 
L 9.8125 71.09375 
Q 15.4375 72.65625 20.34375 73.4375 
Q 25.25 74.21875 29.59375 74.21875 
Q 40.828125 74.21875 47.359375 69.109375 
Q 53.90625 64.015625 53.90625 55.328125 
Q 53.90625 49.265625 50.4375 45.09375 
Q 46.96875 40.921875 40.578125 39.3125 
z
" id="DejaVuSans-51"/>
     </defs>
     <g transform="translate(91 95.192813)scale(0.1 -0.1)">
      <use xlink:href="#DejaVuSans-48"/>
      <use x="63.623047" xlink:href="#DejaVuSans-46"/>
      <use x="95.410156" xlink:href="#DejaVuSans-51"/>
      <use x="159.033203" xlink:href="#DejaVuSans-48"/>
     </g>
    </g>
    <g id="PathCollection_11">
     <defs>
      <path d="M 0 3 
C 0.795609 3 1.55874 2.683901 2.12132 2.12132 
C 2.683901 1.55874 3 0.795609 3 0 
C 3 -0.795609 2.683901 -1.55874 2.12132 -2.12132 
C 1.55874 -2.683901 0.795609 -3 0 -3 
C -0.795609 -3 -1.55874 -2.683901 -2.12132 -2.12132 
C -2.683901 -1.55874 -3 -0.795609 -3 0 
C -3 0.795609 -2.683901 1.55874 -2.12132 2.12132 
C -1.55874 2.683901 -0.795609 3 0 3 
z
" id="mec7b4e6420" style="stroke:#2d1e3e;"/>
     </defs>
     <g>
      <use style="fill:#2d1e3e;stroke:#2d1e3e;" x="73" xlink:href="#mec7b4e6420" y="107.245937"/>
     </g>
    </g>
    <g id="text_25">
     <!-- 0.45 -->
     <g transform="translate(91 109.870937)scale(0.1 -0.1)">
      <use xlink:href="#DejaVuSans-48"/>
      <use x="63.623047" xlink:href="#DejaVuSans-46"/>
      <use x="95.410156" xlink:href="#DejaVuSans-52"/>
      <use x="159.033203" xlink:href="#DejaVuSans-53"/>
     </g>
    </g>
   </g>
  </g>
 </g>
 <defs>
  <clipPath id="pa00c288489">
   <rect height="217.44" width="334.8" x="54" y="34.56"/>
  </clipPath>
 </defs>
</svg>
